<?xml version="1.0" standalone="no"?>
<!DOCTYPE svg PUBLIC "-//W3C//DTD SVG 20010904//EN"
 "http://www.w3.org/TR/2001/REC-SVG-20010904/DTD/svg10.dtd">
<svg version="1.0" xmlns="http://www.w3.org/2000/svg"
 width="210.000000pt" height="240.000000pt" viewBox="0 0 210.000000 240.000000"
 preserveAspectRatio="xMidYMid meet">

<g transform="translate(0.000000,240.000000) scale(0.100000,-0.100000)"
fill="#000000" stroke="none">
<path d="M1096 2033 c-14 -13 -20 -15 -23 -5 -3 8 -11 5 -24 -10 l-18 -23 -1
23 c0 12 -5 22 -11 22 -7 0 -8 -7 -3 -17 4 -10 9 -38 11 -63 1 -25 0 -38 -4
-30 -3 8 -12 21 -20 28 -11 11 -14 11 -20 -4 -5 -13 -10 -10 -25 17 -13 24
-18 27 -14 12 2 -15 -1 -23 -9 -23 -25 0 7 -62 37 -72 22 -8 25 -13 19 -31
-13 -34 -34 -26 -51 19 -17 46 -39 76 -50 69 -4 -2 -10 -19 -14 -37 -5 -24 -9
-29 -15 -19 -7 11 -9 11 -14 0 -3 -9 -6 -7 -6 6 -1 17 -3 17 -11 5 -7 -12 -10
-12 -10 -1 0 8 -6 11 -17 7 -9 -4 -20 -1 -25 6 -5 9 -8 8 -8 -6 0 -14 -5 -17
-24 -12 -14 3 -28 2 -31 -4 -3 -5 2 -10 12 -11 16 0 16 -1 -2 -9 -14 -6 1 -9
48 -7 52 2 67 -1 67 -12 0 -11 -10 -12 -44 -8 -52 7 -69 -6 -51 -41 7 -13 15
-23 19 -23 18 2 18 0 0 -14 -27 -20 -29 -19 -31 15 -4 65 -13 71 -53 35 -15
-14 -19 -26 -15 -45 14 -54 39 -63 86 -29 37 26 55 21 34 -9 -10 -13 -27 -22
-43 -22 -15 0 -34 -5 -42 -10 -11 -7 -6 -8 18 -4 37 7 40 1 12 -28 -21 -22
-28 -54 -10 -43 6 3 10 12 10 19 0 7 14 25 32 42 18 16 26 21 19 12 -10 -13
-10 -18 -2 -18 7 0 0 -10 -15 -23 -26 -22 -43 -87 -23 -87 5 0 9 -11 9 -24 0
-30 16 -42 24 -19 6 15 8 15 16 3 8 -13 12 -12 24 5 9 11 15 16 16 10 0 -5
-20 -32 -44 -58 -30 -34 -46 -45 -50 -35 -3 7 -3 3 0 -9 3 -13 1 -23 -5 -23
-10 0 -16 21 -12 43 2 14 -18 7 -29 -10 -9 -15 -10 -13 -6 12 3 17 3 24 0 17
-3 -6 -10 -9 -16 -6 -6 4 -8 -1 -4 -14 4 -12 2 -23 -5 -28 -8 -4 -9 -3 -5 4
10 17 -7 15 -30 -4 -10 -8 -13 -12 -5 -8 9 5 12 1 8 -12 -4 -11 -9 -32 -13
-48 -4 -16 -13 -41 -20 -54 -13 -26 -8 -56 7 -46 5 3 9 15 9 28 0 12 11 33 25
46 13 12 22 27 19 31 -3 5 3 20 12 33 14 22 18 24 31 11 8 -8 17 -31 20 -50
l6 -35 27 59 c16 32 33 62 39 65 17 11 13 0 -19 -58 -17 -29 -28 -60 -25 -67
3 -8 1 -34 -4 -59 -6 -30 -9 -36 -11 -20 -1 23 -2 24 -11 5 -7 -15 -8 -10 -4
20 l5 40 -19 -22 c-10 -12 -21 -19 -24 -16 -4 3 -9 -13 -13 -36 -4 -22 -10
-41 -15 -41 -5 0 -9 5 -9 11 0 5 -6 7 -12 3 -7 -5 -5 3 5 16 28 40 47 88 41
104 -5 13 -9 12 -24 -7 -34 -44 -42 -70 -44 -147 -2 -46 -8 -86 -16 -95 -9
-11 -9 -15 -1 -15 8 0 9 -5 1 -19 -5 -11 -10 -32 -10 -48 1 -27 1 -27 15 -9 8
11 15 15 15 10 0 -6 -5 -15 -10 -20 -6 -6 -12 -31 -14 -57 l-3 -47 38 0 c44 0
49 -10 18 -41 -18 -18 -20 -30 -17 -154 l3 -134 22 27 22 27 2 -25 c1 -20 3
-17 13 15 13 39 13 39 20 12 3 -15 11 -27 16 -27 6 0 10 -12 11 -27 l1 -28 10
29 c8 21 13 25 19 15 5 -9 9 22 9 77 0 78 -3 93 -20 109 -11 10 -20 22 -20 27
0 4 38 8 85 8 47 0 85 -3 85 -6 0 -4 -8 -13 -17 -20 -15 -10 -19 -34 -23 -140
-5 -124 -4 -129 18 -151 13 -13 18 -23 12 -23 -7 0 -10 -6 -7 -12 2 -7 10 -12
16 -10 6 1 11 -4 11 -10 0 -26 20 17 21 47 1 24 3 25 6 7 2 -12 9 -20 14 -17
5 4 9 -4 9 -17 0 -13 3 -18 8 -12 12 20 48 -2 66 -40 9 -20 21 -34 26 -31 4 3
11 -1 14 -7 3 -7 3 7 0 32 -4 43 -4 44 9 17 15 -31 27 -26 28 12 1 24 2 24 11
-6 12 -36 27 -44 29 -15 1 9 5 4 9 -13 l8 -30 1 28 c0 16 5 26 10 22 5 -3 12
5 14 17 4 22 4 22 6 -2 l2 -25 15 25 c15 25 15 24 10 -15 l-5 -40 24 40 c14
22 25 47 25 55 0 25 18 -3 23 -35 l4 -30 2 31 c0 18 11 40 26 54 24 22 25 29
25 140 0 102 -3 121 -20 143 -11 14 -20 28 -20 31 0 3 22 6 49 6 46 0 51 -3
87 -47 30 -36 40 -43 42 -30 3 14 7 15 17 7 10 -9 15 -4 20 19 3 17 4 35 0 41
-3 5 -1 10 4 10 6 0 11 9 11 19 0 11 7 26 15 34 16 17 21 61 11 92 -7 18 -6
18 4 3 21 -33 28 -18 15 32 -7 28 -9 47 -4 44 6 -3 9 6 7 23 -2 19 1 27 10 25
21 -4 4 56 -25 95 -28 36 -49 158 -32 179 12 14 2 41 -17 48 -8 3 -14 10 -14
16 0 6 5 8 11 4 8 -4 9 1 4 17 -16 51 -17 54 -5 36 19 -29 31 -9 15 24 -9 16
-13 29 -9 29 3 0 -6 16 -21 35 -14 20 -24 41 -22 48 2 7 0 20 -5 30 -10 20 -1
22 38 7 22 -9 25 -8 16 3 -9 10 -9 16 0 25 9 9 9 12 -1 12 -8 0 -29 9 -47 21
-34 20 -34 20 -19 56 8 19 15 45 15 58 0 24 -26 58 -50 68 -12 4 -11 6 3 6 21
1 22 14 2 31 -9 7 -27 10 -45 6 -39 -7 -38 1 3 19 l32 15 -43 -2 c-24 -1 -46
-6 -48 -10 -3 -5 -10 -6 -15 -2 -6 3 -5 12 3 21 11 14 10 15 -11 8 -16 -5 -21
-4 -17 4 10 16 -5 13 -29 -5 -18 -14 -20 -13 -25 6 -3 12 -9 21 -14 20 -5 -1
-12 4 -17 12 -11 17 -30 17 -51 0 -18 -15 -20 -13 -22 22 -1 26 -18 30 -40 9z
m81 -72 c1 -11 -5 -25 -13 -32 -21 -17 -17 -31 6 -19 28 15 25 10 -16 -36
l-37 -39 7 38 c5 27 4 37 -3 32 -18 -11 -12 7 15 42 29 38 39 41 41 14z m84
-34 c-15 -15 -21 -17 -19 -7 3 16 30 41 37 34 3 -3 -5 -15 -18 -27z m-352 -20
c0 -21 -1 -21 -9 -2 -12 28 -12 37 0 30 6 -3 10 -16 9 -28z m371 -16 c0 -5
-12 -19 -26 -30 -15 -12 -22 -21 -16 -21 5 0 8 -9 5 -20 -6 -24 -19 -26 -27
-5 -9 25 22 85 44 85 11 0 20 -4 20 -9z m117 3 c-3 -3 -12 -4 -19 -1 -8 3 -5
6 6 6 11 1 17 -2 13 -5z m-493 -52 c-4 -18 -10 -32 -15 -32 -12 0 -11 11 3 42
16 33 20 30 12 -10z m440 29 c3 -5 16 -7 29 -4 22 5 22 5 2 -10 -23 -17 -37
-20 -75 -18 l-25 1 25 20 c28 22 36 24 44 11z m-500 -72 c-9 -15 -48 -10 -73
10 l-25 19 52 -10 c28 -6 49 -14 46 -19z m536 2 c0 -9 -24 -21 -42 -21 -6 0
-6 6 2 15 14 16 40 20 40 6z m-279 -26 c5 4 9 -5 9 -19 0 -14 -4 -26 -10 -26
-5 0 -6 7 -3 17 4 11 3 14 -5 9 -8 -5 -12 2 -11 21 1 17 3 21 6 10 2 -9 9 -15
14 -12z m-78 -31 c-17 -27 -19 -93 -4 -104 5 -3 10 -12 13 -20 4 -11 9 -8 18
12 11 23 16 26 28 15 13 -10 15 -9 10 9 -3 13 0 21 7 21 9 0 10 -8 4 -31 -5
-17 -9 -32 -9 -34 0 -2 -4 0 -10 3 -5 3 -10 2 -10 -3 0 -6 7 -12 15 -16 8 -3
15 -13 15 -21 0 -10 -5 -13 -12 -9 -8 5 -9 2 -5 -10 4 -9 1 -26 -6 -37 -10
-17 -9 -22 7 -31 14 -8 15 -12 6 -18 -9 -6 -6 -10 10 -15 22 -7 22 -7 -5 -21
-15 -8 -33 -14 -41 -14 -7 0 -16 -5 -20 -11 -5 -8 3 -10 25 -7 22 3 31 1 31
-10 0 -11 -12 -14 -61 -10 l-61 4 38 -34 c34 -30 39 -32 45 -15 6 15 8 15 8 2
1 -9 4 -30 7 -47 6 -28 2 -33 -37 -58 -27 -17 -59 -29 -81 -29 -33 -1 -38 1
-38 21 0 12 -11 29 -26 39 -19 12 -23 20 -14 29 11 15 4 46 -12 46 -5 0 -6 5
-3 10 3 6 -1 17 -9 25 -10 11 -13 27 -10 53 16 105 -1 200 -32 188 -8 -3 -14
-1 -14 4 0 10 14 14 38 11 7 -1 11 2 10 6 -3 9 32 64 47 75 5 4 19 8 30 8 11
0 29 9 38 21 22 25 33 19 17 -10 -8 -16 -8 -21 1 -21 6 0 8 -7 5 -16 -6 -15
-4 -15 10 -3 9 7 12 15 6 17 -24 8 10 52 46 61 1 1 -5 -11 -15 -25z m242 -14
c-3 -6 1 -13 9 -16 9 -3 16 -11 16 -17 0 -6 10 -21 22 -34 12 -13 18 -26 14
-30 -4 -4 -12 0 -17 10 -6 9 -15 17 -22 17 -7 0 -6 -4 3 -10 12 -8 12 -10 -3
-16 -24 -9 -50 3 -43 21 7 19 -13 19 -34 0 -14 -13 -16 -11 -17 25 -2 34 2 40
25 49 36 13 55 13 47 1z m-105 -40 c0 -5 -4 -10 -10 -10 -5 0 -10 5 -10 10 0
6 5 10 10 10 6 0 10 -4 10 -10z m195 -70 c3 -5 -3 -10 -15 -10 -12 0 -18 5
-15 10 3 6 10 10 15 10 5 0 12 -4 15 -10z m-135 -20 c0 -5 -2 -10 -4 -10 -3 0
-8 5 -11 10 -3 6 -1 10 4 10 6 0 11 -4 11 -10z m35 -29 c-16 -15 -65 -25 -65
-13 0 6 15 13 33 15 17 2 34 5 37 5 2 1 0 -2 -5 -7z m59 -57 c-7 -29 -9 -29
-37 -3 -21 20 -21 21 -2 17 16 -2 21 3 24 27 3 29 4 29 12 7 5 -13 6 -35 3
-48z m-179 -201 c-30 -8 -35 -23 -20 -60 15 -35 6 -43 -19 -17 -18 18 -14 63
6 76 7 4 22 7 33 7 l20 -1 -20 -5z m-281 -17 c-3 -7 6 -22 19 -33 l25 -19 -29
-11 c-16 -6 -27 -7 -23 -2 3 5 0 9 -7 9 -8 0 -8 4 1 15 11 13 10 14 -4 9 -21
-8 -21 4 1 28 19 22 24 23 17 4z m166 -112 c0 -8 4 -13 9 -9 6 3 6 -6 1 -24
-6 -23 -5 -29 5 -25 23 9 30 -37 9 -53 -16 -12 -19 -12 -22 1 -2 9 -9 16 -16
16 -14 0 -76 55 -76 68 0 14 22 30 50 35 14 2 28 5 33 6 4 0 7 -6 7 -15z m83
-23 c-4 -3 -11 -10 -15 -15 -5 -5 -8 0 -8 12 0 15 4 20 16 15 9 -3 12 -9 7
-12z m27 -57 c0 -8 -4 -14 -10 -14 -5 0 -10 9 -10 21 0 11 5 17 10 14 6 -3 10
-13 10 -21z m64 -338 c109 -59 105 -256 -7 -307 -57 -25 -122 -24 -172 4 -98
56 -115 205 -31 286 55 53 132 60 210 17z"/>
<path d="M920 1645 c0 -8 -8 -15 -18 -15 -10 0 -22 -3 -25 -7 -10 -10 44 -63
63 -63 9 0 22 -10 29 -22 10 -19 10 -14 6 30 -3 30 -11 62 -18 73 -14 23 -37
25 -37 4z m18 -41 c14 -15 14 -16 -3 -13 -10 2 -20 10 -23 17 -5 17 6 15 26
-4z"/>
<path d="M1049 734 c-20 -22 -24 -37 -27 -102 -4 -100 16 -145 66 -150 46 -5
79 20 92 69 13 47 5 130 -16 170 -24 47 -78 53 -115 13z"/>
<path d="M836 1967 c3 -10 9 -15 12 -12 3 3 0 11 -7 18 -10 9 -11 8 -5 -6z"/>
<path d="M694 1655 c-11 -17 -14 -36 -10 -55 4 -22 2 -30 -9 -30 -13 0 -20
-13 -12 -24 1 -2 -7 -14 -18 -26 -11 -12 -18 -24 -15 -27 3 -3 -8 -11 -25 -18
-20 -9 -24 -14 -12 -14 12 -1 16 -5 11 -13 -5 -7 12 4 36 25 24 20 47 37 50
37 8 0 30 46 30 61 0 6 -3 8 -7 6 -12 -8 -14 62 -3 84 15 28 3 23 -16 -6z"/>
<path d="M716 1513 c-6 -14 -5 -15 5 -6 7 7 10 15 7 18 -3 3 -9 -2 -12 -12z"/>
<path d="M1390 577 c0 -102 14 -143 17 -50 1 31 6 60 12 66 17 17 13 42 -9 62
-20 18 -20 17 -20 -78z"/>
<path d="M751 534 c0 -11 3 -14 6 -6 3 7 2 16 -1 19 -3 4 -6 -2 -5 -13z"/>
</g>
</svg>
